<svg width="503" height="126" viewBox="0 0 503 126" fill="none" xmlns="http://www.w3.org/2000/svg">
<path d="M185.52 38.465H162.44C150.93 38.465 145.09 43.455 145.09 53.285V72.265C145.09 82.615 151.15 87.865 163.1 87.865H173.56C176.66 87.865 178.44 86.025 178.44 82.825C178.44 79.625 176.66 77.885 173.56 77.885H163.1C155.96 77.885 155.14 74.685 155.14 72.275V71.985H185.51C196.82 71.985 202.56 67.295 202.56 58.035V52.515C202.56 43.195 196.82 38.465 185.51 38.465H185.52ZM155.15 53.575C155.15 51.335 155.95 48.345 162.89 48.345H184.93C191.67 48.345 192.45 51.105 192.45 53.185V58.225C192.45 59.395 192.45 62.965 184.93 62.965H155.15V53.575Z" fill="white"/>
<path d="M246.12 38.465H231.8C218.32 38.465 211.49 44.035 211.49 55.035V83.125C211.49 86.455 213.35 88.355 216.59 88.355C219.83 88.355 221.69 86.445 221.69 83.125V55.035C221.69 52.335 222.71 48.745 231.51 48.745H246.35C255.22 48.745 256.24 52.335 256.24 55.035V83.125C256.24 86.455 258.1 88.355 261.34 88.355C264.58 88.355 266.44 86.445 266.44 83.125V55.035C266.44 44.045 259.61 38.465 246.13 38.465H246.12Z" fill="white"/>
<path d="M283.5 21.805C279.97 21.805 278.03 23.865 278.03 27.615C278.03 31.365 279.97 33.435 283.5 33.435C287.03 33.435 288.97 31.315 288.97 27.615C288.97 23.915 286.98 21.805 283.5 21.805Z" fill="white"/>
<path d="M283.5 37.975C280.31 37.975 278.4 39.935 278.4 43.205V83.105C278.4 86.435 280.26 88.335 283.5 88.335C286.74 88.335 288.6 86.425 288.6 83.105V43.205C288.6 39.925 286.69 37.975 283.5 37.975Z" fill="white"/>
<path d="M334.771 38.465H319.931C306.401 38.465 299.541 44.035 299.541 55.035V69.955C299.541 80.885 306.401 86.425 319.931 86.425H344.961V88.645C344.961 90.035 344.961 94.255 335.891 94.255H324.681C321.631 94.255 319.801 96.105 319.801 99.195C319.801 102.285 321.621 104.135 324.681 104.135H335.891C348.681 104.135 355.161 98.885 355.161 88.535V55.025C355.161 44.035 348.301 38.455 334.771 38.455V38.465ZM309.821 71.205V54.835C309.821 52.215 310.791 48.735 319.191 48.735H335.591C344.961 48.735 344.961 53.325 344.961 54.835V76.625H319.191C309.821 76.625 309.821 72.545 309.821 71.205Z" fill="white"/>
<path d="M419.16 38.465H413.74C408.44 38.465 404.15 40.145 400.99 43.475C397.88 40.155 393.59 38.465 388.22 38.465H382.8C370.97 38.465 364.71 44.055 364.71 54.645V83.115C364.71 86.445 366.57 88.345 369.81 88.345C373.05 88.345 374.91 86.435 374.91 83.115V54.645C374.91 52.115 375.7 48.745 382.58 48.745H387.92C394.98 48.745 395.88 51.905 395.88 54.645V83.115C395.88 86.445 397.74 88.345 400.98 88.345C404.22 88.345 406 86.485 406 83.115V54.645C406 51.895 406.91 48.745 414.04 48.745H419.38C426.32 48.745 427.12 52.115 427.12 54.645V83.115C427.12 86.445 428.98 88.345 432.22 88.345C435.46 88.345 437.32 86.435 437.32 83.115V54.645C437.32 44.065 431.04 38.465 419.16 38.465Z" fill="white"/>
<path d="M484.541 38.465H474.081C470.981 38.465 469.201 40.305 469.201 43.505C469.201 46.705 470.981 48.445 474.081 48.445H484.541C491.681 48.445 492.501 51.645 492.501 54.055V54.345H462.131C450.821 54.345 445.081 59.035 445.081 68.295V73.815C445.081 83.135 450.821 87.865 462.131 87.865H485.211C496.721 87.865 502.551 82.875 502.551 73.045V54.065C502.551 43.715 496.491 38.465 484.541 38.465ZM462.721 77.975C455.981 77.975 455.201 75.215 455.201 73.135V68.095C455.201 66.925 455.201 63.355 462.721 63.355H492.501V72.745C492.501 74.985 491.701 77.975 484.761 77.975H462.721Z" fill="white"/>
<path d="M99.3305 37.065C99.4705 36.505 99.5605 35.915 99.5605 35.305V16.925C99.5605 7.98502 92.2805 0.705017 83.3405 0.705017H42.0805C38.1605 0.705017 34.9805 3.88502 34.9805 7.80502C34.9805 11.725 38.1605 14.905 42.0805 14.905H83.3405C84.4505 14.905 85.3505 15.805 85.3505 16.915V35.295C85.3505 35.875 85.4305 36.435 85.5605 36.965H96.4805C97.4605 36.965 98.4005 37.005 99.3305 37.045V37.065Z" fill="white"/>
<path d="M42.3904 32.985C42.3904 29.065 39.2104 25.885 35.2904 25.885H16.9104C7.97043 25.885 0.69043 33.155 0.69043 42.105V83.365C0.69043 87.285 3.87043 90.465 7.79043 90.465C11.7104 90.465 14.8904 87.285 14.8904 83.365V42.105C14.8904 40.995 15.7904 40.095 16.9004 40.095H35.2804C39.2004 40.095 42.3804 36.915 42.3804 32.995L42.3904 32.985Z" fill="white"/>
<path d="M7.79043 14.925H20.3804C24.3004 14.925 27.4804 11.745 27.4804 7.82503C27.4804 3.90503 24.3104 0.715027 20.3804 0.715027H7.79043C3.87043 0.715027 0.69043 3.89503 0.69043 7.81503C0.69043 11.735 3.87043 14.915 7.79043 14.915V14.925Z" fill="white"/>
<path d="M7.79043 97.955C3.87043 97.955 0.69043 101.135 0.69043 105.055V117.645C0.69043 121.565 3.87043 124.745 7.79043 124.745C11.7104 124.745 14.8904 121.565 14.8904 117.645V105.055C14.8904 101.135 11.7104 97.955 7.79043 97.955Z" fill="white"/>
<path d="M117.621 110.545H105.031C101.111 110.545 97.9307 113.725 97.9307 117.645C97.9307 121.565 101.111 124.745 105.031 124.745H117.621C121.541 124.745 124.721 121.565 124.721 117.645C124.721 113.725 121.541 110.545 117.621 110.545Z" fill="white"/>
<path d="M117.621 0.715027C113.701 0.715027 110.521 3.89503 110.521 7.81503V20.405C110.521 24.325 113.701 27.505 117.621 27.505C121.541 27.505 124.721 24.325 124.721 20.405V7.81503C124.721 3.89503 121.541 0.715027 117.621 0.715027Z" fill="white"/>
<path d="M96.4802 98.785C115.2 98.785 124.5 90.345 124.5 73.455V62.515C124.5 46.325 116.14 37.915 99.3302 37.075C98.4002 37.025 97.4602 36.995 96.4802 36.995H55.7602C36.6402 36.995 27.2202 46.015 27.2202 64.055V101.675C27.2202 120.675 37.0402 125.235 56.9402 125.235H75.4002C79.7202 125.235 81.9502 122.545 81.9502 117.555C81.9502 112.565 79.7202 110.065 75.4002 110.065H56.9402C46.2002 110.065 40.8402 110.685 40.8402 101.665V98.785H96.4902H96.4802ZM40.8302 64.625C40.8302 56.185 46.0702 51.955 56.5402 51.955H95.4302C105.64 51.955 110.75 55.985 110.75 63.855V73.835C110.75 81.515 105.64 85.545 95.4302 85.545H40.8302V64.625Z" fill="white"/>
</svg>
