<svg width="516" height="144" viewBox="0 0 516 144" fill="none" xmlns="http://www.w3.org/2000/svg">
<path d="M114.062 42.045C114.224 41.3975 114.328 40.7152 114.328 40.0099V18.7561C114.328 8.41826 105.91 0 95.5717 0H47.8605C43.3276 0 39.6504 3.67721 39.6504 8.21012C39.6504 12.743 43.3276 16.4202 47.8605 16.4202H95.5717C96.8553 16.4202 97.896 17.461 97.896 18.7445V39.9983C97.896 40.669 97.9885 41.3165 98.1388 41.9294H110.766C111.899 41.9294 112.986 41.9757 114.062 42.0219V42.045Z" fill="white"/>
<path d="M48.22 37.3288C48.22 32.7959 44.5428 29.1187 40.0099 29.1187H18.7561C8.41826 29.1187 0 37.5254 0 47.8747V95.5859C0 100.119 3.67721 103.796 8.21012 103.796C12.743 103.796 16.4202 100.119 16.4202 95.5859V47.8747C16.4202 46.5912 17.461 45.5505 18.7445 45.5505H39.9983C44.5312 45.5505 48.2084 41.8732 48.2084 37.3403L48.22 37.3288Z" fill="white"/>
<path d="M8.21012 16.4435H22.7686C27.3015 16.4435 30.9787 12.7663 30.9787 8.2334C30.9787 3.70049 27.3131 0.0117188 22.7686 0.0117188H8.21012C3.67721 0.0117188 0 3.68893 0 8.22184C0 12.7547 3.67721 16.432 8.21012 16.432V16.4435Z" fill="white"/>
<path d="M8.21012 112.456C3.67721 112.456 0 116.133 0 120.666V135.224C0 139.757 3.67721 143.434 8.21012 143.434C12.743 143.434 16.4202 139.757 16.4202 135.224V120.666C16.4202 116.133 12.743 112.456 8.21012 112.456Z" fill="white"/>
<path d="M135.212 127.015H120.653C116.121 127.015 112.443 130.692 112.443 135.225C112.443 139.758 116.121 143.435 120.653 143.435H135.212C139.745 143.435 143.422 139.758 143.422 135.225C143.422 130.692 139.745 127.015 135.212 127.015Z" fill="white"/>
<path d="M135.212 0.0117188C130.679 0.0117188 127.002 3.68893 127.002 8.22184V22.7803C127.002 27.3132 130.679 30.9905 135.212 30.9905C139.745 30.9905 143.422 27.3132 143.422 22.7803V8.22184C143.422 3.68893 139.745 0.0117188 135.212 0.0117188Z" fill="white"/>
<path d="M110.767 113.414C132.414 113.414 143.168 103.654 143.168 84.1231V71.4726C143.168 52.7512 133.501 43.0263 114.062 42.0549C112.987 41.9971 111.9 41.9624 110.767 41.9624H63.6801C41.5706 41.9624 30.6777 52.3927 30.6777 73.2534V116.755C30.6777 138.726 42.0331 143.999 65.0446 143.999H86.3909C91.3863 143.999 93.965 140.889 93.965 135.118C93.965 129.348 91.3863 126.457 86.3909 126.457H65.0446C52.6253 126.457 46.4273 127.174 46.4273 116.744V113.414H110.778H110.767ZM46.4157 73.9125C46.4157 64.1528 52.475 59.2615 64.582 59.2615H109.553C121.359 59.2615 127.268 63.9216 127.268 73.0221V84.5625C127.268 93.4433 121.359 98.1034 109.553 98.1034H46.4157V73.9125Z" fill="white"/>
<path d="M204.892 31.6621H182.817C171.808 31.6621 166.223 36.4348 166.223 45.8366V63.9899C166.223 73.889 172.019 78.9103 183.448 78.9103H193.453C196.418 78.9103 198.12 77.1505 198.12 74.0899C198.12 71.0293 196.418 69.3651 193.453 69.3651H183.448C176.619 69.3651 175.835 66.3044 175.835 63.9994V63.722H204.882C215.699 63.722 221.189 59.2363 221.189 50.3797V45.1001C221.189 36.1861 215.699 31.6621 204.882 31.6621H204.892ZM175.844 46.1139C175.844 43.9715 176.61 41.1118 183.247 41.1118H204.327C210.774 41.1118 211.52 43.7515 211.52 45.7409V50.5614C211.52 51.6804 211.52 55.0949 204.327 55.0949H175.844V46.1139Z" fill="white"/>
<path d="M262.852 31.6621H249.156C236.263 31.6621 229.73 36.9895 229.73 47.5104V74.3768C229.73 77.5618 231.509 79.379 234.608 79.379C237.707 79.379 239.486 77.5522 239.486 74.3768V47.5104C239.486 44.928 240.462 41.4943 248.878 41.4943H263.072C271.556 41.4943 272.531 44.928 272.531 47.5104V74.3768C272.531 77.5618 274.31 79.379 277.409 79.379C280.508 79.379 282.287 77.5522 282.287 74.3768V47.5104C282.287 36.9991 275.754 31.6621 262.862 31.6621H262.852Z" fill="white"/>
<path d="M298.603 15.7271C295.227 15.7271 293.371 17.6973 293.371 21.284C293.371 24.8706 295.227 26.8505 298.603 26.8505C301.979 26.8505 303.835 24.8228 303.835 21.284C303.835 17.7451 301.931 15.7271 298.603 15.7271Z" fill="white"/>
<path d="M298.602 31.1934C295.551 31.1934 293.725 33.068 293.725 36.1956V74.3576C293.725 77.5425 295.504 79.3598 298.602 79.3598C301.701 79.3598 303.48 77.533 303.48 74.3576V36.1956C303.48 33.0584 301.654 31.1934 298.602 31.1934Z" fill="white"/>
<path d="M347.641 31.6624H333.447C320.506 31.6624 313.945 36.9898 313.945 47.5106V61.7808C313.945 72.2347 320.506 77.5334 333.447 77.5334H357.387V79.6567C357.387 80.9861 357.387 85.0223 348.712 85.0223H337.99C335.073 85.0223 333.323 86.7917 333.323 89.7471C333.323 92.7025 335.064 94.4719 337.99 94.4719H348.712C360.945 94.4719 367.143 89.4506 367.143 79.5514V47.5011C367.143 36.9898 360.581 31.6528 347.641 31.6528V31.6624ZM323.778 62.9763V47.3194C323.778 44.8135 324.705 41.4851 332.739 41.4851H348.425C357.387 41.4851 357.387 45.8751 357.387 47.3194V68.1602H332.739C323.778 68.1602 323.778 64.2579 323.778 62.9763Z" fill="white"/>
<path d="M428.356 31.6621H423.172C418.103 31.6621 413.999 33.2689 410.977 36.4539C408.003 33.2785 403.899 31.6621 398.763 31.6621H393.579C382.265 31.6621 376.277 37.0086 376.277 47.1373V74.3673C376.277 77.5522 378.056 79.3694 381.155 79.3694C384.254 79.3694 386.033 77.5426 386.033 74.3673V47.1373C386.033 44.7175 386.789 41.4943 393.369 41.4943H398.476C405.229 41.4943 406.09 44.5167 406.09 47.1373V74.3673C406.09 77.5522 407.869 79.3694 410.968 79.3694C414.066 79.3694 415.769 77.5905 415.769 74.3673V47.1373C415.769 44.5071 416.639 41.4943 423.459 41.4943H428.566C435.204 41.4943 435.969 44.7175 435.969 47.1373V74.3673C435.969 77.5522 437.748 79.3694 440.847 79.3694C443.946 79.3694 445.725 77.5426 445.725 74.3673V47.1373C445.725 37.0182 439.718 31.6621 428.356 31.6621Z" fill="white"/>
<path d="M490.888 31.6621H480.883C477.918 31.6621 476.216 33.422 476.216 36.4826C476.216 39.5432 477.918 41.2074 480.883 41.2074H490.888C497.717 41.2074 498.501 44.268 498.501 46.573V46.8504H469.454C458.636 46.8504 453.146 51.3361 453.146 60.1928V65.4723C453.146 74.3864 458.636 78.9103 469.454 78.9103H491.528C502.537 78.9103 508.113 74.1377 508.113 64.7359V46.5826C508.113 36.6834 502.317 31.6621 490.888 31.6621ZM470.018 69.4511C463.572 69.4511 462.826 66.8114 462.826 64.822V60.0015C462.826 58.8824 462.826 55.468 470.018 55.468H498.501V64.4489C498.501 66.5914 497.736 69.4511 491.098 69.4511H470.018Z" fill="white"/>
<path d="M196.118 107.25L195.617 109.521C194.745 109.019 193.056 108.676 191.736 108.676C189.677 108.676 188.541 109.442 188.541 110.762C188.541 113.903 196.778 112.372 196.778 117.784C196.778 120.662 194.693 122.457 190.68 122.457C188.779 122.457 186.931 122.034 185.849 121.454L186.113 119.051C187.142 119.658 189.017 120.186 190.759 120.186C193.082 120.186 194.165 119.421 194.165 118.022C194.165 114.774 185.901 116.385 185.901 110.973C185.901 108.28 188.04 106.406 191.683 106.406C193.267 106.406 195.036 106.696 196.118 107.25ZM205.634 110.656L205.449 112.794H202.07V118.418C202.07 119.738 202.783 120.292 203.944 120.292C204.604 120.292 205.212 120.054 205.634 119.738L205.766 121.85C205.212 122.246 204.393 122.457 203.416 122.457C200.856 122.457 199.615 121.137 199.615 118.708V112.794H197.978V110.656H199.615V108.122L202.07 107.567V110.656H205.634ZM217.119 122.272H214.769V121.295C213.845 121.955 212.499 122.457 210.994 122.457C208.407 122.457 206.981 121.19 206.981 119.051C206.981 116.702 208.803 115.514 211.628 115.514C212.736 115.514 214.03 115.751 214.716 116.068V114.986C214.716 113.322 213.713 112.636 211.733 112.636C210.334 112.636 208.908 113.032 208.064 113.56L207.958 111.342C208.988 110.788 210.466 110.471 212.05 110.471C215.297 110.471 217.119 111.791 217.119 114.827V122.272ZM214.716 119.843V117.652C214.056 117.309 213.053 117.124 212.156 117.124C210.466 117.124 209.463 117.678 209.463 119.025C209.463 120.266 210.36 120.767 211.76 120.767C212.842 120.767 214.056 120.345 214.716 119.843ZM226.646 110.656L226.461 112.794H223.082V118.418C223.082 119.738 223.795 120.292 224.956 120.292C225.616 120.292 226.223 120.054 226.646 119.738L226.778 121.85C226.223 122.246 225.405 122.457 224.428 122.457C221.867 122.457 220.627 121.137 220.627 118.708V112.794H218.99V110.656H220.627V108.122L223.082 107.567V110.656H226.646ZM238.659 117.045H230.58C230.844 119.051 232.428 120.292 234.883 120.292C236.203 120.292 237.735 119.87 238.659 119.21L238.764 121.401C237.867 122.061 236.124 122.457 234.725 122.457C230.527 122.457 227.993 120.107 227.993 116.358C227.993 112.821 230.422 110.471 233.669 110.471C236.626 110.471 238.764 112.398 238.764 115.461C238.764 115.91 238.738 116.543 238.659 117.045ZM233.669 112.293C231.927 112.293 230.686 113.56 230.501 115.54H236.415C236.441 115.434 236.441 115.25 236.441 115.118C236.441 113.454 235.332 112.293 233.669 112.293ZM257.878 116.464C257.878 119.975 255.238 122.457 251.727 122.457C248.242 122.457 245.576 119.975 245.576 116.464C245.576 112.953 248.242 110.471 251.727 110.471C255.238 110.471 257.878 112.953 257.878 116.464ZM255.317 116.464C255.317 114.194 253.733 112.636 251.727 112.636C249.694 112.636 248.137 114.194 248.137 116.464C248.137 118.734 249.721 120.292 251.727 120.292C253.76 120.292 255.317 118.734 255.317 116.464ZM266.344 105.693L266.238 107.858C265.974 107.752 265.578 107.726 265.209 107.726C263.862 107.726 263.018 108.359 263.018 110.049V110.656H266.054L265.869 112.794H263.018V122.272H260.562V112.794H258.926V110.656H260.562V109.996C260.562 107.013 262.305 105.534 264.971 105.534C265.42 105.534 266.001 105.587 266.344 105.693ZM279.807 110.656L279.622 112.794H276.243V118.418C276.243 119.738 276.955 120.292 278.117 120.292C278.777 120.292 279.384 120.054 279.807 119.738L279.939 121.85C279.384 122.246 278.566 122.457 277.589 122.457C275.028 122.457 273.787 121.137 273.787 118.708V112.794H272.151V110.656H273.787V108.122L276.243 107.567V110.656H279.807ZM292.506 122.272H290.024V115.144C290.024 113.428 289.1 112.662 287.569 112.662C286.54 112.662 285.404 113.111 284.454 113.745V122.272H281.972V105.666L284.454 105.534V111.844C285.721 110.894 287.094 110.471 288.44 110.471C290.922 110.471 292.506 111.738 292.506 114.616V122.272ZM305.252 117.045H297.173C297.437 119.051 299.021 120.292 301.476 120.292C302.796 120.292 304.328 119.87 305.252 119.21L305.357 121.401C304.46 122.061 302.717 122.457 301.318 122.457C297.12 122.457 294.586 120.107 294.586 116.358C294.586 112.821 297.015 110.471 300.262 110.471C303.219 110.471 305.357 112.398 305.357 115.461C305.357 115.91 305.331 116.543 305.252 117.045ZM300.262 112.293C298.52 112.293 297.279 113.56 297.094 115.54H303.008C303.034 115.434 303.034 115.25 303.034 115.118C303.034 113.454 301.925 112.293 300.262 112.293ZM322.306 122.272H319.957V121.295C319.033 121.955 317.686 122.457 316.182 122.457C313.594 122.457 312.169 121.19 312.169 119.051C312.169 116.702 313.99 115.514 316.815 115.514C317.924 115.514 319.218 115.751 319.904 116.068V114.986C319.904 113.322 318.901 112.636 316.921 112.636C315.522 112.636 314.096 113.032 313.251 113.56L313.146 111.342C314.175 110.788 315.654 110.471 317.238 110.471C320.485 110.471 322.306 111.791 322.306 114.827V122.272ZM319.904 119.843V117.652C319.244 117.309 318.241 117.124 317.343 117.124C315.654 117.124 314.65 117.678 314.65 119.025C314.65 120.266 315.548 120.767 316.947 120.767C318.03 120.767 319.244 120.345 319.904 119.843ZM332.018 110.603L331.939 112.979C331.675 112.874 331.147 112.768 330.751 112.768C329.616 112.768 328.533 113.322 327.715 114.167V122.272H325.233V110.709L327.715 110.603V112.161C328.692 111.052 329.906 110.471 331.147 110.471C331.464 110.471 331.833 110.524 332.018 110.603ZM340.47 110.656L340.285 112.794H336.906V118.418C336.906 119.738 337.619 120.292 338.78 120.292C339.44 120.292 340.048 120.054 340.47 119.738L340.602 121.85C340.048 122.246 339.229 122.457 338.252 122.457C335.692 122.457 334.451 121.137 334.451 118.708V112.794H332.814V110.656H334.451V108.122L336.906 107.567V110.656H340.47ZM357.768 117.045H349.69C349.954 119.051 351.538 120.292 353.993 120.292C355.313 120.292 356.844 119.87 357.768 119.21L357.874 121.401C356.976 122.061 355.234 122.457 353.834 122.457C349.637 122.457 347.102 120.107 347.102 116.358C347.102 112.821 349.531 110.471 352.778 110.471C355.735 110.471 357.874 112.398 357.874 115.461C357.874 115.91 357.847 116.543 357.768 117.045ZM352.778 112.293C351.036 112.293 349.795 113.56 349.61 115.54H355.524C355.55 115.434 355.55 115.25 355.55 115.118C355.55 113.454 354.442 112.293 352.778 112.293ZM370.699 122.272H368.218V115.144C368.218 113.428 367.346 112.662 365.815 112.662C364.786 112.662 363.65 113.111 362.7 113.745V122.272H360.218V110.709L362.7 110.603V111.844C363.967 110.894 365.287 110.471 366.634 110.471C369.115 110.471 370.699 111.738 370.699 114.616V122.272ZM380.199 110.656L380.014 112.794H376.635V118.418C376.635 119.738 377.348 120.292 378.509 120.292C379.169 120.292 379.776 120.054 380.199 119.738L380.331 121.85C379.776 122.246 378.958 122.457 377.981 122.457C375.42 122.457 374.18 121.137 374.18 118.708V112.794H372.543V110.656H374.18V108.122L376.635 107.567V110.656H380.199ZM392.212 117.045H384.133C384.397 119.051 385.981 120.292 388.437 120.292C389.757 120.292 391.288 119.87 392.212 119.21L392.317 121.401C391.42 122.061 389.677 122.457 388.278 122.457C384.081 122.457 381.546 120.107 381.546 116.358C381.546 112.821 383.975 110.471 387.222 110.471C390.179 110.471 392.317 112.398 392.317 115.461C392.317 115.91 392.291 116.543 392.212 117.045ZM387.222 112.293C385.48 112.293 384.239 113.56 384.054 115.54H389.968C389.994 115.434 389.994 115.25 389.994 115.118C389.994 113.454 388.885 112.293 387.222 112.293ZM401.447 110.603L401.368 112.979C401.104 112.874 400.576 112.768 400.18 112.768C399.045 112.768 397.962 113.322 397.144 114.167V122.272H394.662V110.709L397.144 110.603V112.161C398.121 111.052 399.335 110.471 400.576 110.471C400.893 110.471 401.262 110.524 401.447 110.603ZM409.899 110.656L409.714 112.794H406.335V118.418C406.335 119.738 407.048 120.292 408.209 120.292C408.869 120.292 409.476 120.054 409.899 119.738L410.031 121.85C409.476 122.246 408.658 122.457 407.681 122.457C405.12 122.457 403.88 121.137 403.88 118.708V112.794H402.243V110.656H403.88V108.122L406.335 107.567V110.656H409.899ZM421.384 122.272H419.034V121.295C418.11 121.955 416.764 122.457 415.259 122.457C412.672 122.457 411.246 121.19 411.246 119.051C411.246 116.702 413.068 115.514 415.893 115.514C417.001 115.514 418.295 115.751 418.981 116.068V114.986C418.981 113.322 417.978 112.636 415.998 112.636C414.599 112.636 413.173 113.032 412.329 113.56L412.223 111.342C413.253 110.788 414.731 110.471 416.315 110.471C419.562 110.471 421.384 111.791 421.384 114.827V122.272ZM418.981 119.843V117.652C418.321 117.309 417.318 117.124 416.421 117.124C414.731 117.124 413.728 117.678 413.728 119.025C413.728 120.266 414.625 120.767 416.025 120.767C417.107 120.767 418.321 120.345 418.981 119.843ZM425.578 105.587C426.396 105.587 427.003 106.194 427.003 106.986C427.003 107.805 426.396 108.438 425.578 108.438C424.733 108.438 424.099 107.805 424.099 106.986C424.099 106.194 424.733 105.587 425.578 105.587ZM426.792 110.603V122.272H424.311V110.709L426.792 110.603ZM440.18 122.272H437.698V115.144C437.698 113.428 436.827 112.662 435.296 112.662C434.266 112.662 433.131 113.111 432.18 113.745V122.272H429.699V110.709L432.18 110.603V111.844C433.448 110.894 434.768 110.471 436.114 110.471C438.596 110.471 440.18 111.738 440.18 114.616V122.272ZM460.873 122.272H458.391V115.144C458.391 114.801 458.339 114.51 458.259 114.273C458.022 113.138 457.256 112.662 456.147 112.662C456.015 112.662 455.883 112.689 455.778 112.689C454.933 112.794 453.983 113.164 453.111 113.771C453.164 114.141 453.217 114.537 453.217 114.933V122.272H450.735V115.144C450.735 114.801 450.683 114.51 450.603 114.273C450.366 113.138 449.6 112.662 448.491 112.662C447.567 112.662 446.485 113.111 445.561 113.745V122.272H443.079V110.709L445.561 110.603V111.844C446.617 111.052 447.647 110.63 448.571 110.55C449.151 110.498 449.653 110.524 450.155 110.603C451.263 110.762 452.161 111.29 452.689 112.214C454.088 110.973 455.487 110.471 456.887 110.471C459.315 110.471 460.873 111.738 460.873 114.616V122.272ZM473.629 117.045H465.551C465.815 119.051 467.399 120.292 469.854 120.292C471.174 120.292 472.705 119.87 473.629 119.21L473.735 121.401C472.837 122.061 471.095 122.457 469.695 122.457C465.498 122.457 462.963 120.107 462.963 116.358C462.963 112.821 465.392 110.471 468.639 110.471C471.596 110.471 473.735 112.398 473.735 115.461C473.735 115.91 473.708 116.543 473.629 117.045ZM468.639 112.293C466.897 112.293 465.656 113.56 465.471 115.54H471.385C471.411 115.434 471.411 115.25 471.411 115.118C471.411 113.454 470.303 112.293 468.639 112.293ZM486.56 122.272H484.079V115.144C484.079 113.428 483.207 112.662 481.676 112.662C480.647 112.662 479.511 113.111 478.561 113.745V122.272H476.079V110.709L478.561 110.603V111.844C479.828 110.894 481.148 110.471 482.495 110.471C484.976 110.471 486.56 111.738 486.56 114.616V122.272ZM496.06 110.656L495.875 112.794H492.496V118.418C492.496 119.738 493.209 120.292 494.37 120.292C495.03 120.292 495.637 120.054 496.06 119.738L496.192 121.85C495.637 122.246 494.819 122.457 493.842 122.457C491.281 122.457 490.041 121.137 490.041 118.708V112.794H488.404V110.656H490.041V108.122L492.496 107.567V110.656H496.06Z" fill="#E3E3E3"/>
</svg>
